<?xml version="1.0" encoding="UTF-8"?><svg id="a" xmlns="http://www.w3.org/2000/svg" viewBox="0 0 124 140"><g><path d="M104.9,34c-.1,0-6.1,1.9-13.7-.1-.7-.2-1.2-.8-1.1-1.5v-.1c.1-.9,.9-1.5,1.8-1.4,1.6,.3,3.1,.5,4.6,.6,1.8,.1,3.4,.1,4.9-.1,3.9-.3,6.3-4.3,4.9-8h0c-.1,0-8.3,3.2-17.9-.7-2.2-.9-8.6-3.7-8.6-3.7-1.4-.6-3,.2-3.2,1.7v12.5c0,2.1-.5,3.9-1.3,5.5-.3,.6-.7,1.2-1.1,1.8-.2,.3-.4,.5-.7,.8-1.9,2.1-4.6,3.5-7.7,4.2l-1.7,2.9c-.2,.3-.4,.5-.7,.6s-.6,.2-.9,.2c-.4,0-.9-.1-1.2-.5-.1-.1-.2-.2-.3-.4l-1.7-2.9c-4.2-1-7.7-3.3-9.5-6.8-.8-1.6-1.3-3.4-1.3-5.5v-12.3c-.2-1.5-1.9-2.3-3.2-1.7,0,0-6.5,2.8-8.6,3.7-9.6,3.9-17.8,.7-17.9,.7h0c-1.4,3.6,1,7.6,4.9,8,1.5,.1,3.1,.2,4.9,.1,1.4-.1,3-.3,4.6-.6,.9-.2,1.7,.5,1.8,1.4v.1c0,.7-.4,1.4-1.1,1.5-7.6,2-13.6,.1-13.7,.1h0c-1.2,3.7,1.4,7.6,5.3,7.7,1.5,.1,3.1,0,4.9-.2,1.4-.1,2.8-.4,4.3-.7,.8-.2,1.6,.3,1.8,1.1h0c.2,.8-.3,1.5-1,1.8-7,2.2-12.6,1-12.7,1h0c-.9,3.8,2.1,7.4,5.9,7.2,1.5-.1,3.1-.3,4.8-.6,1.2-.2,2.5-.6,3.9-1,.8-.2,1.6,.2,1.8,.9q0,.1,.1,.2c.3,.7-.1,1.5-.8,1.9-5.8,2.8-10.7,2.8-10.7,2.8h0c0,3.8,3.7,6.8,7.4,5.8,1.4-.4,3-.9,4.6-1.6,.6-.3,1.2-.5,1.9-.9,.7-.3,1.5-.1,1.9,.5l.1,.1c.5,.7,.3,1.6-.4,2.1-4.2,2.8-7.9,3.6-7.9,3.6h0c.7,3.8,4.9,5.9,8.4,4.1,1.3-.7,2.7-1.5,4.2-2.5,0,0,.1,0,.1-.1,.6-.4,1.4-.4,1.9,.2l.2,.2c.5,.5,.6,1.4,.1,2-2.8,3.4-5.4,5-5.5,5h0c2,3.4,6.6,3.9,9.3,1.1,.4-.5,.9-1,1.4-1.5,1.2,2.1,2.1,4.7,2.7,8.2l.3,2.1c-6.1,6.6-13.4,8-13.5,8h0c.7,3.8,4.8,6,8.3,4.3,1.3-.6,2.7-1.5,4.2-2.4,.6-.4,1.1-.8,1.7-1.2l.2,3.9c-3.8,3-7.2,4.1-7.3,4.1h0l.4,1.4c.9,2.9,4.2,4.3,6.9,2.8,.1-.1,.2-.1,.4-.2v5.6c0,1,.5,1.9,1.3,2.7l1.5,1.4h0l1.5-1.4c.8-.8,1.3-1.7,1.3-2.7v-5.6c.1,.1,.2,.2,.4,.2,2.6,1.5,6,.1,6.9-2.8l.4-1.4h0c-.1,0-3.4-1.1-7.3-4.1l.2-3.9c.6,.4,1.1,.9,1.7,1.2,1.5,1,2.9,1.8,4.2,2.4,3.5,1.7,7.6-.5,8.3-4.3h0c-.1,0-7.3-1.4-13.5-8l.3-2.1c.5-3.4,1.5-6,2.7-8.2,.5,.5,.9,1.1,1.4,1.5,2.7,2.8,7.3,2.3,9.3-1.1h0s-2.7-1.6-5.5-5c-.5-.6-.5-1.5,.1-2l.2-.2c.5-.5,1.3-.6,1.9-.2,0,0,.1,0,.1,.1,1.4,1,2.9,1.9,4.2,2.5,3.5,1.8,7.7-.3,8.4-4.1h0c-.1,0-3.7-.8-7.9-3.6-.7-.5-.9-1.4-.4-2.1l.1-.1c.4-.6,1.2-.8,1.9-.5,.6,.3,1.3,.6,1.9,.9,1.6,.7,3.2,1.2,4.6,1.6,3.8,1,7.4-2,7.3-5.8h0c-.1,0-5,0-10.7-2.8-.7-.3-1-1.1-.8-1.9q0-.1,.1-.2c.3-.7,1.1-1.1,1.8-.9,1.3,.4,2.6,.7,3.9,1,1.7,.3,3.4,.5,4.8,.6,3.9,.2,6.8-3.4,5.9-7.2h0c-.1,0-5.7,1.2-12.7-1-.7-.2-1.2-1-1-1.8h0c.2-.8,1-1.3,1.8-1.1,1.5,.3,3,.6,4.3,.7,1.8,.2,3.4,.2,4.9,.2,3.9-.2,6.6-4.1,5.3-7.8h0Z" style="fill:#fff;"/><path d="M71.5,20h-10.5c-1.4,0-2.6,.9-3.1,2.2h-2c-2.3,0-4.2,1.9-4.2,4.2v4.9c.5-1.1,1.6-1.9,2.9-1.9h3.7l-2.3,9.4c-.2,.6,.2,1.1,.7,1.1,1.8,0,2.5-.3,3.9-1.6l1.5,4.2h0c.1,.2,.2,.3,.4,.3s.3-.1,.4-.3l1.5-4.2c1.3,1.3,2.1,1.6,3.9,1.6,.6,0,.9-.6,.7-1.1l-1.2-9.4h.2c2.3,0,4.2-1.9,4.2-4.2v-.1c.9-.6,1.5-1.6,1.5-2.7v-3.8c-.3,.8-1.2,1.4-2.2,1.4Zm-9,4.7c-.3,.2-.7,.1-1-.1l-.6-.6c-.3-.3-.3-.8,0-1.2l.6-.6c.3-.3,.7-.3,1-.1l2.3,1.3-2.3,1.3Z" style="fill:#fff;"/></g><path d="M117.1,49.3c0,38-44.7,74.4-54.7,82C52.4,123.7,7.7,87.4,7.7,49.3V7.1H117V49.3h.1ZM1,.3V49.2c0,19.5,10.1,40.4,29.9,62.2,14.6,16,29,26.3,29.6,26.8l2,1.4,2-1.4c.6-.4,15-10.7,29.6-26.8,19.8-21.8,29.9-42.7,29.9-62.2V.3H1Z" style="fill:#ffd400;"/></svg>