<?xml version="1.0" encoding="UTF-8"?><svg id="a" xmlns="http://www.w3.org/2000/svg" xmlns:xlink="http://www.w3.org/1999/xlink" viewBox="0 0 29.17 29"><defs><style>.h{fill:none;}.i{fill:#7ecbfd;}.j{clip-path:url(#b);}</style><clipPath id="b"><rect width="88.21" height="29" style="fill:none;"/></clipPath></defs><g style="clip-path:url(#b);"><g id="c"><path id="d" d="M29.14,12.29c-.1-.11-.23-.2-.37-.26-.56-.22-1.19-.11-1.65,.27-.07,.05-.14,.11-.17,.13-.01,0-.03,0-.04-.04-.04-.16-.1-.36-.11-.4-.94-4.15-3.8-7.6-7.7-9.31-.88-.33-1.84-.41-2.76-.22-.43,.1-.85,.23-1.26,.39-2.77,.88-5.02,2.91-6.21,5.56-.05,.11-.16,.34-.11,.36,.04,.02,.09,0,.12-.03,.1-.08,.19-.15,.28-.23,1.1-.98,2.42-1.66,3.85-1.99,1.33-.34,2.71-.46,4.08-.35,1.71,.19,3.35,.83,4.72,1.87,1.88,1.22,3.43,2.89,4.5,4.86h0c.1,.15,.16,.33,.17,.51-.15,.81,.23,1.62,.94,2.04,.04,.03,.08-.02,.05-.07-.42-.65-.46-1.48-.1-2.17,.27-.55,.83-.9,1.44-.88,.19,0,.35,.02,.36,0s-.02-.04-.03-.06" style="fill:#7ecbfd;"/><path id="e" d="M12.42,.03c-.11,.1-.2,.23-.26,.37-.22,.56-.11,1.19,.27,1.65,.05,.07,.11,.14,.13,.17,0,.01,0,.03-.04,.04-.16,.04-.36,.1-.4,.11-4.15,.94-7.6,3.8-9.31,7.7-.33,.88-.41,1.84-.22,2.76,.1,.43,.23,.85,.39,1.26,.88,2.77,2.91,5.02,5.56,6.21,.11,.05,.34,.16,.36,.11,.02-.04,0-.09-.03-.12-.08-.1-.15-.19-.23-.28-.98-1.1-1.66-2.42-1.99-3.85-.34-1.33-.46-2.71-.35-4.08,.19-1.71,.83-3.35,1.87-4.72,1.22-1.88,2.89-3.43,4.86-4.5h0c.15-.1,.33-.16,.51-.17,.81,.15,1.62-.23,2.04-.94,.03-.05-.02-.08-.07-.05-.65,.42-1.48,.46-2.17,.1-.55-.27-.89-.83-.88-1.44,0-.19,.02-.34,0-.35s-.04,.02-.06,.03" style="fill:#7ecbfd;"/><path id="f" d="M.03,16.71c.1,.11,.23,.2,.37,.26,.56,.22,1.19,.11,1.65-.28,.07-.05,.14-.11,.17-.13,.01,0,.03,0,.04,.04,.04,.16,.1,.36,.11,.4,.94,4.15,3.8,7.6,7.7,9.31,.88,.33,1.84,.41,2.76,.22,.43-.1,.85-.23,1.26-.39,2.77-.88,5.02-2.9,6.21-5.55,.05-.11,.16-.34,.11-.36-.04-.02-.09,0-.12,.03-.1,.07-.19,.15-.28,.23-1.1,.98-2.42,1.66-3.85,1.99-1.33,.34-2.71,.46-4.08,.35-1.72-.19-3.35-.83-4.73-1.87-1.88-1.22-3.43-2.89-4.5-4.86h0c-.1-.15-.16-.33-.17-.51,.15-.81-.23-1.62-.94-2.04-.04-.03-.08,.02-.05,.07,.42,.65,.46,1.48,.1,2.17-.27,.55-.83,.9-1.44,.88-.19,0-.34-.02-.35,0s.02,.04,.03,.06" style="fill:#7ecbfd;"/><path id="g" d="M16.76,28.97c.11-.1,.2-.23,.26-.37,.22-.56,.11-1.19-.28-1.65-.05-.07-.11-.14-.13-.17,0-.01,0-.03,.04-.04,.16-.04,.36-.1,.4-.11,4.15-.94,7.6-3.8,9.31-7.7,.33-.88,.41-1.84,.22-2.76-.1-.43-.23-.85-.39-1.26-.89-2.76-2.91-5.02-5.56-6.21-.11-.05-.34-.16-.36-.11-.02,.04,0,.09,.03,.12,.07,.1,.15,.19,.23,.28,.98,1.1,1.66,2.42,1.99,3.85,.34,1.33,.46,2.71,.35,4.08-.19,1.71-.83,3.35-1.87,4.72-1.22,1.88-2.89,3.43-4.86,4.5h0c-.15,.1-.33,.16-.51,.17-.81-.15-1.62,.23-2.04,.94-.03,.04,.02,.08,.07,.05,.65-.42,1.48-.46,2.17-.1,.55,.27,.9,.83,.88,1.44,0,.19-.02,.35,0,.36s.04-.02,.06-.03" style="fill:#7ecbfd;"/></g></g></svg>